<!DOCTYPE svg PUBLIC "-//W3C//DTD SVG 1.1//EN" "http://www.w3.org/Graphics/SVG/1.1/DTD/svg11.dtd">
<svg xmlns="http://www.w3.org/2000/svg" xmlns:xlink="http://www.w3.org/1999/xlink" xmlns:jfreesvg="http://www.jfree.org/jfreesvg/svg" width="1000" height="500" text-rendering="auto" shape-rendering="auto">
<defs><clipPath id="386409035746199clip-0"><path d="M 0 0 L 1000 0 L 1000 500 L 0 500 L 0 0 Z "/></clipPath>
<clipPath id="386409035746199clip-1"><path d="M 248.45 208.55 L 248.45 1208.55 L -251.55 1208.55 L -251.55 208.55 L 248.45 208.55 Z "/></clipPath>
<clipPath id="386409035746199clip-2"><path d="M 66 34 L 66 423 L 988 423 L 988 34 Z "/></clipPath>
</defs>
<rect x="0" y="0" width="1000" height="500" style="fill: rgb(255,255,255); fill-opacity: 1.0" transform="matrix(1,0,0,1,0,0)" clip-path="url(#386409035746199clip-0)"/><g transform="matrix(1,0,0,1,0,0)"><text x="458.29" y="19.56" style="fill: rgb(0,0,0); fill-opacity: 1.0; font-family: sans-serif; font-size: 20px; font-weight: bold;" clip-path="url(#386409035746199clip-0)">Results</text></g><rect x="483.19" y="477.03" width="33.62" height="21.97" style="fill: rgb(255,255,255); fill-opacity: 1.0" transform="matrix(1,0,0,1,0,0)" clip-path="url(#386409035746199clip-0)"/><line x1="483.69" y1="477.53" x2="516.31" y2="477.53" style="stroke-width: 1.0;stroke: rgb(0,0,0);stroke-opacity: 1.0;stroke-linecap: square;shape-rendering:crispEdges;" transform="matrix(1,0,0,1,0,0)" clip-path="url(#386409035746199clip-0)"/><line x1="483.69" y1="498.5" x2="516.31" y2="498.5" style="stroke-width: 1.0;stroke: rgb(0,0,0);stroke-opacity: 1.0;stroke-linecap: square;shape-rendering:crispEdges;" transform="matrix(1,0,0,1,0,0)" clip-path="url(#386409035746199clip-0)"/><line x1="483.69" y1="498.5" x2="483.69" y2="477.53" style="stroke-width: 1.0;stroke: rgb(0,0,0);stroke-opacity: 1.0;stroke-linecap: square;shape-rendering:crispEdges;" transform="matrix(1,0,0,1,0,0)" clip-path="url(#386409035746199clip-0)"/><line x1="516.31" y1="498.5" x2="516.31" y2="477.53" style="stroke-width: 1.0;stroke: rgb(0,0,0);stroke-opacity: 1.0;stroke-linecap: square;shape-rendering:crispEdges;" transform="matrix(1,0,0,1,0,0)" clip-path="url(#386409035746199clip-0)"/><g style="stroke-width: 1.0;stroke: rgb(255,85,85);stroke-opacity: 1.0;stroke-linecap: square;stroke-linejoin: bevel;shape-rendering:geometricPrecision;; fill: none" transform="matrix(1,0,0,1,0,0)" clip-path="url(#386409035746199clip-0)"><path d="M 487.19 488.02 L 501.19 488.02"/></g><g transform="matrix(1,0,0,1,0,0)"><text x="505.19" y="492.17" style="fill: rgb(64,64,64); fill-opacity: 1.0; font-family: sans-serif; font-size: 12px;" clip-path="url(#386409035746199clip-0)">p</text></g><rect x="66" y="34" width="922" height="389" style="fill: rgb(192,192,192); fill-opacity: 1.0" transform="matrix(1,0,0,1,0,0)" clip-path="url(#386409035746199clip-0)"/><line x1="66" y1="427" x2="988" y2="427" style="stroke-width: 0.5;stroke: rgb(128,128,128);stroke-opacity: 1.0;stroke-linecap: square;shape-rendering:crispEdges;" transform="matrix(1,0,0,1,0,0)" clip-path="url(#386409035746199clip-0)"/><line x1="138.99" y1="427" x2="138.99" y2="427" style="stroke-width: 0.5;stroke: rgb(128,128,128);stroke-opacity: 1.0;stroke-linecap: square;shape-rendering:crispEdges;" transform="matrix(1,0,0,1,0,0)" clip-path="url(#386409035746199clip-0)"/><line x1="138.99" y1="427" x2="138.99" y2="429" style="stroke-width: 0.5;stroke: rgb(128,128,128);stroke-opacity: 1.0;stroke-linecap: square;shape-rendering:crispEdges;" transform="matrix(1,0,0,1,0,0)" clip-path="url(#386409035746199clip-0)"/><line x1="209.54" y1="427" x2="209.54" y2="427" style="stroke-width: 0.5;stroke: rgb(128,128,128);stroke-opacity: 1.0;stroke-linecap: square;shape-rendering:crispEdges;" transform="matrix(1,0,0,1,0,0)" clip-path="url(#386409035746199clip-0)"/><line x1="209.54" y1="427" x2="209.54" y2="429" style="stroke-width: 0.5;stroke: rgb(128,128,128);stroke-opacity: 1.0;stroke-linecap: square;shape-rendering:crispEdges;" transform="matrix(1,0,0,1,0,0)" clip-path="url(#386409035746199clip-0)"/><line x1="280.09" y1="427" x2="280.09" y2="427" style="stroke-width: 0.5;stroke: rgb(128,128,128);stroke-opacity: 1.0;stroke-linecap: square;shape-rendering:crispEdges;" transform="matrix(1,0,0,1,0,0)" clip-path="url(#386409035746199clip-0)"/><line x1="280.09" y1="427" x2="280.09" y2="429" style="stroke-width: 0.5;stroke: rgb(128,128,128);stroke-opacity: 1.0;stroke-linecap: square;shape-rendering:crispEdges;" transform="matrix(1,0,0,1,0,0)" clip-path="url(#386409035746199clip-0)"/><line x1="350.63" y1="427" x2="350.63" y2="427" style="stroke-width: 0.5;stroke: rgb(128,128,128);stroke-opacity: 1.0;stroke-linecap: square;shape-rendering:crispEdges;" transform="matrix(1,0,0,1,0,0)" clip-path="url(#386409035746199clip-0)"/><line x1="350.63" y1="427" x2="350.63" y2="429" style="stroke-width: 0.5;stroke: rgb(128,128,128);stroke-opacity: 1.0;stroke-linecap: square;shape-rendering:crispEdges;" transform="matrix(1,0,0,1,0,0)" clip-path="url(#386409035746199clip-0)"/><line x1="421.18" y1="427" x2="421.18" y2="427" style="stroke-width: 0.5;stroke: rgb(128,128,128);stroke-opacity: 1.0;stroke-linecap: square;shape-rendering:crispEdges;" transform="matrix(1,0,0,1,0,0)" clip-path="url(#386409035746199clip-0)"/><line x1="421.18" y1="427" x2="421.18" y2="429" style="stroke-width: 0.5;stroke: rgb(128,128,128);stroke-opacity: 1.0;stroke-linecap: square;shape-rendering:crispEdges;" transform="matrix(1,0,0,1,0,0)" clip-path="url(#386409035746199clip-0)"/><line x1="491.73" y1="427" x2="491.73" y2="427" style="stroke-width: 0.5;stroke: rgb(128,128,128);stroke-opacity: 1.0;stroke-linecap: square;shape-rendering:crispEdges;" transform="matrix(1,0,0,1,0,0)" clip-path="url(#386409035746199clip-0)"/><line x1="491.73" y1="427" x2="491.73" y2="429" style="stroke-width: 0.5;stroke: rgb(128,128,128);stroke-opacity: 1.0;stroke-linecap: square;shape-rendering:crispEdges;" transform="matrix(1,0,0,1,0,0)" clip-path="url(#386409035746199clip-0)"/><line x1="562.27" y1="427" x2="562.27" y2="427" style="stroke-width: 0.5;stroke: rgb(128,128,128);stroke-opacity: 1.0;stroke-linecap: square;shape-rendering:crispEdges;" transform="matrix(1,0,0,1,0,0)" clip-path="url(#386409035746199clip-0)"/><line x1="562.27" y1="427" x2="562.27" y2="429" style="stroke-width: 0.5;stroke: rgb(128,128,128);stroke-opacity: 1.0;stroke-linecap: square;shape-rendering:crispEdges;" transform="matrix(1,0,0,1,0,0)" clip-path="url(#386409035746199clip-0)"/><line x1="632.82" y1="427" x2="632.82" y2="427" style="stroke-width: 0.5;stroke: rgb(128,128,128);stroke-opacity: 1.0;stroke-linecap: square;shape-rendering:crispEdges;" transform="matrix(1,0,0,1,0,0)" clip-path="url(#386409035746199clip-0)"/><line x1="632.82" y1="427" x2="632.82" y2="429" style="stroke-width: 0.5;stroke: rgb(128,128,128);stroke-opacity: 1.0;stroke-linecap: square;shape-rendering:crispEdges;" transform="matrix(1,0,0,1,0,0)" clip-path="url(#386409035746199clip-0)"/><line x1="703.37" y1="427" x2="703.37" y2="427" style="stroke-width: 0.5;stroke: rgb(128,128,128);stroke-opacity: 1.0;stroke-linecap: square;shape-rendering:crispEdges;" transform="matrix(1,0,0,1,0,0)" clip-path="url(#386409035746199clip-0)"/><line x1="703.37" y1="427" x2="703.37" y2="429" style="stroke-width: 0.5;stroke: rgb(128,128,128);stroke-opacity: 1.0;stroke-linecap: square;shape-rendering:crispEdges;" transform="matrix(1,0,0,1,0,0)" clip-path="url(#386409035746199clip-0)"/><line x1="773.91" y1="427" x2="773.91" y2="427" style="stroke-width: 0.5;stroke: rgb(128,128,128);stroke-opacity: 1.0;stroke-linecap: square;shape-rendering:crispEdges;" transform="matrix(1,0,0,1,0,0)" clip-path="url(#386409035746199clip-0)"/><line x1="773.91" y1="427" x2="773.91" y2="429" style="stroke-width: 0.5;stroke: rgb(128,128,128);stroke-opacity: 1.0;stroke-linecap: square;shape-rendering:crispEdges;" transform="matrix(1,0,0,1,0,0)" clip-path="url(#386409035746199clip-0)"/><line x1="844.46" y1="427" x2="844.46" y2="427" style="stroke-width: 0.5;stroke: rgb(128,128,128);stroke-opacity: 1.0;stroke-linecap: square;shape-rendering:crispEdges;" transform="matrix(1,0,0,1,0,0)" clip-path="url(#386409035746199clip-0)"/><line x1="844.46" y1="427" x2="844.46" y2="429" style="stroke-width: 0.5;stroke: rgb(128,128,128);stroke-opacity: 1.0;stroke-linecap: square;shape-rendering:crispEdges;" transform="matrix(1,0,0,1,0,0)" clip-path="url(#386409035746199clip-0)"/><line x1="915.01" y1="427" x2="915.01" y2="427" style="stroke-width: 0.5;stroke: rgb(128,128,128);stroke-opacity: 1.0;stroke-linecap: square;shape-rendering:crispEdges;" transform="matrix(1,0,0,1,0,0)" clip-path="url(#386409035746199clip-0)"/><line x1="915.01" y1="427" x2="915.01" y2="429" style="stroke-width: 0.5;stroke: rgb(128,128,128);stroke-opacity: 1.0;stroke-linecap: square;shape-rendering:crispEdges;" transform="matrix(1,0,0,1,0,0)" clip-path="url(#386409035746199clip-0)"/><g transform="matrix(1,0,0,1,0,0)"><text x="129.45" y="444.14" style="fill: rgb(64,64,64); fill-opacity: 1.0; font-family: sans-serif; font-size: 12px;" clip-path="url(#386409035746199clip-0)">0.0</text></g><g transform="matrix(1,0,0,1,0,0)"><text x="196.18" y="444.14" style="fill: rgb(64,64,64); fill-opacity: 1.0; font-family: sans-serif; font-size: 12px;" clip-path="url(#386409035746199clip-0)">25.0</text></g><g transform="matrix(1,0,0,1,0,0)"><text x="266.73" y="444.14" style="fill: rgb(64,64,64); fill-opacity: 1.0; font-family: sans-serif; font-size: 12px;" clip-path="url(#386409035746199clip-0)">50.0</text></g><g transform="matrix(1,0,0,1,0,0)"><text x="337.27" y="444.14" style="fill: rgb(64,64,64); fill-opacity: 1.0; font-family: sans-serif; font-size: 12px;" clip-path="url(#386409035746199clip-0)">75.0</text></g><g transform="matrix(1,0,0,1,0,0)"><text x="407.82" y="444.14" style="fill: rgb(64,64,64); fill-opacity: 1.0; font-family: sans-serif; font-size: 12px;" clip-path="url(#386409035746199clip-0)">90.0</text></g><g transform="matrix(1,0,0,1,0,0)"><text x="478.37" y="444.14" style="fill: rgb(64,64,64); fill-opacity: 1.0; font-family: sans-serif; font-size: 12px;" clip-path="url(#386409035746199clip-0)">95.0</text></g><g transform="matrix(1,0,0,1,0,0)"><text x="548.91" y="444.14" style="fill: rgb(64,64,64); fill-opacity: 1.0; font-family: sans-serif; font-size: 12px;" clip-path="url(#386409035746199clip-0)">99.0</text></g><g transform="matrix(1,0,0,1,0,0)"><text x="619.46" y="444.14" style="fill: rgb(64,64,64); fill-opacity: 1.0; font-family: sans-serif; font-size: 12px;" clip-path="url(#386409035746199clip-0)">99.9</text></g><g transform="matrix(1,0,0,1,0,0)"><text x="686.19" y="444.14" style="fill: rgb(64,64,64); fill-opacity: 1.0; font-family: sans-serif; font-size: 12px;" clip-path="url(#386409035746199clip-0)">99.99</text></g><g transform="matrix(1,0,0,1,0,0)"><text x="752.92" y="444.14" style="fill: rgb(64,64,64); fill-opacity: 1.0; font-family: sans-serif; font-size: 12px;" clip-path="url(#386409035746199clip-0)">99.999</text></g><g transform="matrix(1,0,0,1,0,0)"><text x="819.65" y="444.14" style="fill: rgb(64,64,64); fill-opacity: 1.0; font-family: sans-serif; font-size: 12px;" clip-path="url(#386409035746199clip-0)">99.9999</text></g><g transform="matrix(1,0,0,1,0,0)"><text x="897.83" y="444.14" style="fill: rgb(64,64,64); fill-opacity: 1.0; font-family: sans-serif; font-size: 12px;" clip-path="url(#386409035746199clip-0)">100.0</text></g><g transform="matrix(1,0,0,1,0,0)"><text x="486.9" y="466.96" style="fill: rgb(64,64,64); fill-opacity: 1.0; font-family: sans-serif; font-size: 14px; font-weight: bold;" clip-path="url(#386409035746199clip-0)">Percentile</text></g><line x1="62" y1="34" x2="62" y2="423" style="stroke-width: 0.5;stroke: rgb(128,128,128);stroke-opacity: 1.0;stroke-linecap: square;shape-rendering:crispEdges;" transform="matrix(1,0,0,1,0,0)" clip-path="url(#386409035746199clip-0)"/><g transform="matrix(1,0,0,1,0,0)"><text x="48.37" y="427.15" style="fill: rgb(64,64,64); fill-opacity: 1.0; font-family: sans-serif; font-size: 12px;" clip-path="url(#386409035746199clip-0)">0</text></g><line x1="60" y1="423" x2="62" y2="423" style="stroke-width: 0.5;stroke: rgb(128,128,128);stroke-opacity: 1.0;stroke-linecap: square;shape-rendering:crispEdges;" transform="matrix(1,0,0,1,0,0)" clip-path="url(#386409035746199clip-0)"/><g transform="matrix(1,0,0,1,0,0)"><text x="40.73" y="390.69" style="fill: rgb(64,64,64); fill-opacity: 1.0; font-family: sans-serif; font-size: 12px;" clip-path="url(#386409035746199clip-0)">50</text></g><line x1="60" y1="386.54" x2="62" y2="386.54" style="stroke-width: 0.5;stroke: rgb(128,128,128);stroke-opacity: 1.0;stroke-linecap: square;shape-rendering:crispEdges;" transform="matrix(1,0,0,1,0,0)" clip-path="url(#386409035746199clip-0)"/><g transform="matrix(1,0,0,1,0,0)"><text x="33.1" y="354.23" style="fill: rgb(64,64,64); fill-opacity: 1.0; font-family: sans-serif; font-size: 12px;" clip-path="url(#386409035746199clip-0)">100</text></g><line x1="60" y1="350.07" x2="62" y2="350.07" style="stroke-width: 0.5;stroke: rgb(128,128,128);stroke-opacity: 1.0;stroke-linecap: square;shape-rendering:crispEdges;" transform="matrix(1,0,0,1,0,0)" clip-path="url(#386409035746199clip-0)"/><g transform="matrix(1,0,0,1,0,0)"><text x="33.1" y="317.76" style="fill: rgb(64,64,64); fill-opacity: 1.0; font-family: sans-serif; font-size: 12px;" clip-path="url(#386409035746199clip-0)">150</text></g><line x1="60" y1="313.61" x2="62" y2="313.61" style="stroke-width: 0.5;stroke: rgb(128,128,128);stroke-opacity: 1.0;stroke-linecap: square;shape-rendering:crispEdges;" transform="matrix(1,0,0,1,0,0)" clip-path="url(#386409035746199clip-0)"/><g transform="matrix(1,0,0,1,0,0)"><text x="33.1" y="281.3" style="fill: rgb(64,64,64); fill-opacity: 1.0; font-family: sans-serif; font-size: 12px;" clip-path="url(#386409035746199clip-0)">200</text></g><line x1="60" y1="277.14" x2="62" y2="277.14" style="stroke-width: 0.5;stroke: rgb(128,128,128);stroke-opacity: 1.0;stroke-linecap: square;shape-rendering:crispEdges;" transform="matrix(1,0,0,1,0,0)" clip-path="url(#386409035746199clip-0)"/><g transform="matrix(1,0,0,1,0,0)"><text x="33.1" y="244.83" style="fill: rgb(64,64,64); fill-opacity: 1.0; font-family: sans-serif; font-size: 12px;" clip-path="url(#386409035746199clip-0)">250</text></g><line x1="60" y1="240.68" x2="62" y2="240.68" style="stroke-width: 0.5;stroke: rgb(128,128,128);stroke-opacity: 1.0;stroke-linecap: square;shape-rendering:crispEdges;" transform="matrix(1,0,0,1,0,0)" clip-path="url(#386409035746199clip-0)"/><g transform="matrix(1,0,0,1,0,0)"><text x="33.1" y="208.37" style="fill: rgb(64,64,64); fill-opacity: 1.0; font-family: sans-serif; font-size: 12px;" clip-path="url(#386409035746199clip-0)">300</text></g><line x1="60" y1="204.21" x2="62" y2="204.21" style="stroke-width: 0.5;stroke: rgb(128,128,128);stroke-opacity: 1.0;stroke-linecap: square;shape-rendering:crispEdges;" transform="matrix(1,0,0,1,0,0)" clip-path="url(#386409035746199clip-0)"/><g transform="matrix(1,0,0,1,0,0)"><text x="33.1" y="171.9" style="fill: rgb(64,64,64); fill-opacity: 1.0; font-family: sans-serif; font-size: 12px;" clip-path="url(#386409035746199clip-0)">350</text></g><line x1="60" y1="167.75" x2="62" y2="167.75" style="stroke-width: 0.5;stroke: rgb(128,128,128);stroke-opacity: 1.0;stroke-linecap: square;shape-rendering:crispEdges;" transform="matrix(1,0,0,1,0,0)" clip-path="url(#386409035746199clip-0)"/><g transform="matrix(1,0,0,1,0,0)"><text x="33.1" y="135.44" style="fill: rgb(64,64,64); fill-opacity: 1.0; font-family: sans-serif; font-size: 12px;" clip-path="url(#386409035746199clip-0)">400</text></g><line x1="60" y1="131.29" x2="62" y2="131.29" style="stroke-width: 0.5;stroke: rgb(128,128,128);stroke-opacity: 1.0;stroke-linecap: square;shape-rendering:crispEdges;" transform="matrix(1,0,0,1,0,0)" clip-path="url(#386409035746199clip-0)"/><g transform="matrix(1,0,0,1,0,0)"><text x="33.1" y="98.98" style="fill: rgb(64,64,64); fill-opacity: 1.0; font-family: sans-serif; font-size: 12px;" clip-path="url(#386409035746199clip-0)">450</text></g><line x1="60" y1="94.82" x2="62" y2="94.82" style="stroke-width: 0.5;stroke: rgb(128,128,128);stroke-opacity: 1.0;stroke-linecap: square;shape-rendering:crispEdges;" transform="matrix(1,0,0,1,0,0)" clip-path="url(#386409035746199clip-0)"/><g transform="matrix(1,0,0,1,0,0)"><text x="33.1" y="62.51" style="fill: rgb(64,64,64); fill-opacity: 1.0; font-family: sans-serif; font-size: 12px;" clip-path="url(#386409035746199clip-0)">500</text></g><line x1="60" y1="58.36" x2="62" y2="58.36" style="stroke-width: 0.5;stroke: rgb(128,128,128);stroke-opacity: 1.0;stroke-linecap: square;shape-rendering:crispEdges;" transform="matrix(1,0,0,1,0,0)" clip-path="url(#386409035746199clip-0)"/><g transform="matrix(0,-1,1,0,-208.552734,248.447266)"><text x="-31.32" y="233.35" style="fill: rgb(64,64,64); fill-opacity: 1.0; font-family: sans-serif; font-size: 14px; font-weight: bold;" clip-path="url(#386409035746199clip-1)">Latency (ms)</text></g><line x1="66" y1="423" x2="988" y2="423" style="stroke-width: 0.5;stroke: rgb(255,255,255);stroke-opacity: 1.0;stroke-linejoin: bevel;stroke-dasharray: 2.0, 2.0;shape-rendering:crispEdges;" transform="matrix(1,0,0,1,0,0)" clip-path="url(#386409035746199clip-2)"/><line x1="66" y1="386.54" x2="988" y2="386.54" style="stroke-width: 0.5;stroke: rgb(255,255,255);stroke-opacity: 1.0;stroke-linejoin: bevel;stroke-dasharray: 2.0, 2.0;shape-rendering:crispEdges;" transform="matrix(1,0,0,1,0,0)" clip-path="url(#386409035746199clip-2)"/><line x1="66" y1="350.07" x2="988" y2="350.07" style="stroke-width: 0.5;stroke: rgb(255,255,255);stroke-opacity: 1.0;stroke-linejoin: bevel;stroke-dasharray: 2.0, 2.0;shape-rendering:crispEdges;" transform="matrix(1,0,0,1,0,0)" clip-path="url(#386409035746199clip-2)"/><line x1="66" y1="313.61" x2="988" y2="313.61" style="stroke-width: 0.5;stroke: rgb(255,255,255);stroke-opacity: 1.0;stroke-linejoin: bevel;stroke-dasharray: 2.0, 2.0;shape-rendering:crispEdges;" transform="matrix(1,0,0,1,0,0)" clip-path="url(#386409035746199clip-2)"/><line x1="66" y1="277.14" x2="988" y2="277.14" style="stroke-width: 0.5;stroke: rgb(255,255,255);stroke-opacity: 1.0;stroke-linejoin: bevel;stroke-dasharray: 2.0, 2.0;shape-rendering:crispEdges;" transform="matrix(1,0,0,1,0,0)" clip-path="url(#386409035746199clip-2)"/><line x1="66" y1="240.68" x2="988" y2="240.68" style="stroke-width: 0.5;stroke: rgb(255,255,255);stroke-opacity: 1.0;stroke-linejoin: bevel;stroke-dasharray: 2.0, 2.0;shape-rendering:crispEdges;" transform="matrix(1,0,0,1,0,0)" clip-path="url(#386409035746199clip-2)"/><line x1="66" y1="204.21" x2="988" y2="204.21" style="stroke-width: 0.5;stroke: rgb(255,255,255);stroke-opacity: 1.0;stroke-linejoin: bevel;stroke-dasharray: 2.0, 2.0;shape-rendering:crispEdges;" transform="matrix(1,0,0,1,0,0)" clip-path="url(#386409035746199clip-2)"/><line x1="66" y1="167.75" x2="988" y2="167.75" style="stroke-width: 0.5;stroke: rgb(255,255,255);stroke-opacity: 1.0;stroke-linejoin: bevel;stroke-dasharray: 2.0, 2.0;shape-rendering:crispEdges;" transform="matrix(1,0,0,1,0,0)" clip-path="url(#386409035746199clip-2)"/><line x1="66" y1="131.29" x2="988" y2="131.29" style="stroke-width: 0.5;stroke: rgb(255,255,255);stroke-opacity: 1.0;stroke-linejoin: bevel;stroke-dasharray: 2.0, 2.0;shape-rendering:crispEdges;" transform="matrix(1,0,0,1,0,0)" clip-path="url(#386409035746199clip-2)"/><line x1="66" y1="94.82" x2="988" y2="94.82" style="stroke-width: 0.5;stroke: rgb(255,255,255);stroke-opacity: 1.0;stroke-linejoin: bevel;stroke-dasharray: 2.0, 2.0;shape-rendering:crispEdges;" transform="matrix(1,0,0,1,0,0)" clip-path="url(#386409035746199clip-2)"/><line x1="66" y1="58.36" x2="988" y2="58.36" style="stroke-width: 0.5;stroke: rgb(255,255,255);stroke-opacity: 1.0;stroke-linejoin: bevel;stroke-dasharray: 2.0, 2.0;shape-rendering:crispEdges;" transform="matrix(1,0,0,1,0,0)" clip-path="url(#386409035746199clip-2)"/><line x1="138.99" y1="423" x2="209.54" y2="390.91" style="stroke-width: 1.0;stroke: rgb(255,85,85);stroke-opacity: 1.0;stroke-linecap: square;stroke-linejoin: bevel;shape-rendering:geometricPrecision;" transform="matrix(1,0,0,1,0,0)" clip-path="url(#386409035746199clip-2)"/><line x1="209.54" y1="390.91" x2="280.09" y2="376.33" style="stroke-width: 1.0;stroke: rgb(255,85,85);stroke-opacity: 1.0;stroke-linecap: square;stroke-linejoin: bevel;shape-rendering:geometricPrecision;" transform="matrix(1,0,0,1,0,0)" clip-path="url(#386409035746199clip-2)"/><line x1="280.09" y1="376.33" x2="350.63" y2="358.82" style="stroke-width: 1.0;stroke: rgb(255,85,85);stroke-opacity: 1.0;stroke-linecap: square;stroke-linejoin: bevel;shape-rendering:geometricPrecision;" transform="matrix(1,0,0,1,0,0)" clip-path="url(#386409035746199clip-2)"/><line x1="350.63" y1="358.82" x2="421.18" y2="341.32" style="stroke-width: 1.0;stroke: rgb(255,85,85);stroke-opacity: 1.0;stroke-linecap: square;stroke-linejoin: bevel;shape-rendering:geometricPrecision;" transform="matrix(1,0,0,1,0,0)" clip-path="url(#386409035746199clip-2)"/><line x1="421.18" y1="341.32" x2="491.73" y2="328.19" style="stroke-width: 1.0;stroke: rgb(255,85,85);stroke-opacity: 1.0;stroke-linecap: square;stroke-linejoin: bevel;shape-rendering:geometricPrecision;" transform="matrix(1,0,0,1,0,0)" clip-path="url(#386409035746199clip-2)"/><line x1="491.73" y1="328.19" x2="562.27" y2="236.3" style="stroke-width: 1.0;stroke: rgb(255,85,85);stroke-opacity: 1.0;stroke-linecap: square;stroke-linejoin: bevel;shape-rendering:geometricPrecision;" transform="matrix(1,0,0,1,0,0)" clip-path="url(#386409035746199clip-2)"/><line x1="562.27" y1="236.3" x2="632.82" y2="204.21" style="stroke-width: 1.0;stroke: rgb(255,85,85);stroke-opacity: 1.0;stroke-linecap: square;stroke-linejoin: bevel;shape-rendering:geometricPrecision;" transform="matrix(1,0,0,1,0,0)" clip-path="url(#386409035746199clip-2)"/><line x1="632.82" y1="204.21" x2="703.37" y2="181.61" style="stroke-width: 1.0;stroke: rgb(255,85,85);stroke-opacity: 1.0;stroke-linecap: square;stroke-linejoin: bevel;shape-rendering:geometricPrecision;" transform="matrix(1,0,0,1,0,0)" clip-path="url(#386409035746199clip-2)"/><line x1="703.37" y1="181.61" x2="773.91" y2="118.89" style="stroke-width: 1.0;stroke: rgb(255,85,85);stroke-opacity: 1.0;stroke-linecap: square;stroke-linejoin: bevel;shape-rendering:geometricPrecision;" transform="matrix(1,0,0,1,0,0)" clip-path="url(#386409035746199clip-2)"/><line x1="773.91" y1="118.89" x2="844.46" y2="52.52" style="stroke-width: 1.0;stroke: rgb(255,85,85);stroke-opacity: 1.0;stroke-linecap: square;stroke-linejoin: bevel;shape-rendering:geometricPrecision;" transform="matrix(1,0,0,1,0,0)" clip-path="url(#386409035746199clip-2)"/><line x1="844.46" y1="52.52" x2="915.01" y2="52.52" style="stroke-width: 1.0;stroke: rgb(255,85,85);stroke-opacity: 1.0;stroke-linecap: square;stroke-linejoin: bevel;shape-rendering:geometricPrecision;" transform="matrix(1,0,0,1,0,0)" clip-path="url(#386409035746199clip-2)"/><rect x="66" y="34" width="922" height="389" style="stroke-width: 0.5;stroke: rgb(0,0,0);stroke-opacity: 1.0;stroke-linecap: round;stroke-linejoin: round;shape-rendering:crispEdges;; fill: none" transform="matrix(1,0,0,1,0,0)" clip-path="url(#386409035746199clip-0)"/></svg>
